<?xml version="1.0" standalone="no"?>
<!DOCTYPE svg PUBLIC "-//W3C//DTD SVG 20010904//EN"
 "http://www.w3.org/TR/2001/REC-SVG-20010904/DTD/svg10.dtd">
<svg version="1.0" xmlns="http://www.w3.org/2000/svg"
 width="4167.000000pt" height="4167.000000pt" viewBox="0 0 4167.000000 4167.000000"
 preserveAspectRatio="xMidYMid meet">

<g transform="translate(0.000000,4167.000000) scale(0.100000,-0.100000)"
fill="#000000" stroke="none">
<path d="M10855 36429 c-55 -4 -181 -12 -280 -18 -99 -5 -195 -15 -214 -20
-19 -6 -82 -13 -140 -17 -58 -3 -133 -12 -165 -20 -33 -8 -99 -19 -147 -24
-48 -5 -96 -13 -107 -19 -10 -5 -43 -13 -73 -16 -30 -4 -83 -15 -119 -25 -36
-11 -92 -22 -125 -26 -33 -3 -64 -10 -70 -14 -5 -5 -39 -14 -75 -20 -36 -6
-70 -16 -76 -21 -6 -5 -38 -14 -70 -20 -33 -6 -64 -15 -69 -19 -6 -5 -33 -14
-60 -20 -28 -6 -63 -17 -80 -25 -16 -7 -48 -17 -70 -21 -22 -4 -49 -13 -60
-20 -11 -6 -36 -15 -55 -19 -19 -4 -44 -13 -55 -20 -11 -7 -34 -16 -52 -20
-17 -3 -48 -15 -69 -26 -21 -10 -43 -19 -49 -19 -6 0 -28 -9 -50 -20 -22 -11
-47 -20 -56 -20 -9 0 -22 -6 -28 -14 -7 -8 -30 -17 -51 -21 -21 -4 -44 -13
-51 -21 -6 -8 -16 -14 -23 -14 -6 0 -33 -11 -61 -24 -77 -36 -258 -126 -275
-135 -8 -5 -26 -14 -40 -20 -14 -6 -43 -22 -65 -36 -22 -13 -47 -27 -55 -30
-8 -4 -22 -11 -30 -16 -8 -5 -30 -16 -49 -25 -19 -8 -40 -22 -48 -30 -8 -8
-25 -17 -39 -20 -13 -3 -24 -9 -24 -14 0 -4 -27 -21 -59 -38 -33 -17 -86 -49
-118 -71 -32 -23 -64 -41 -70 -41 -7 0 -13 -5 -13 -11 0 -5 -16 -17 -35 -25
-19 -8 -35 -19 -35 -24 0 -5 -11 -12 -25 -16 -14 -3 -25 -10 -25 -15 0 -5 -14
-16 -32 -25 -17 -9 -36 -20 -42 -26 -17 -14 -266 -202 -283 -213 -18 -12 -40
-31 -101 -86 -24 -21 -46 -39 -49 -39 -3 0 -15 -10 -27 -22 -12 -13 -53 -50
-91 -83 -38 -33 -79 -70 -91 -82 -12 -13 -24 -23 -28 -23 -3 0 -82 -76 -174
-169 -147 -148 -217 -224 -288 -309 -10 -13 -28 -34 -39 -46 -11 -12 -36 -42
-55 -65 -19 -24 -52 -62 -73 -85 -21 -22 -45 -53 -53 -68 -8 -16 -19 -28 -24
-28 -6 0 -10 -5 -10 -11 0 -9 -57 -86 -102 -139 -15 -17 -88 -123 -103 -149
-6 -10 -18 -25 -28 -35 -9 -10 -17 -23 -17 -30 0 -8 -7 -20 -16 -27 -9 -7 -20
-22 -25 -34 -5 -11 -23 -40 -39 -65 -17 -25 -33 -53 -36 -62 -4 -10 -10 -18
-14 -18 -4 0 -15 -18 -25 -40 -10 -22 -21 -40 -25 -40 -4 0 -14 -17 -23 -37
-9 -21 -28 -56 -41 -78 -14 -22 -32 -53 -40 -70 -16 -32 -30 -54 -57 -95 -9
-14 -20 -37 -24 -50 -4 -14 -13 -32 -20 -40 -7 -8 -16 -26 -20 -40 -4 -14 -13
-32 -20 -40 -7 -8 -16 -29 -20 -47 -3 -17 -13 -37 -21 -44 -8 -6 -14 -16 -14
-22 0 -9 -43 -104 -61 -137 -5 -8 -12 -22 -15 -30 -4 -8 -17 -38 -30 -67 -13
-28 -24 -58 -24 -65 0 -7 -9 -26 -20 -43 -11 -16 -20 -39 -20 -50 0 -11 -9
-37 -20 -58 -11 -20 -20 -44 -20 -52 0 -8 -9 -32 -20 -52 -11 -21 -20 -47 -20
-58 -1 -11 -9 -38 -20 -60 -11 -22 -20 -49 -20 -60 0 -11 -9 -38 -20 -60 -11
-22 -20 -49 -20 -60 0 -11 -9 -40 -20 -64 -11 -24 -20 -53 -20 -65 -1 -11 -8
-39 -16 -61 -9 -22 -20 -65 -25 -95 -5 -30 -16 -71 -23 -90 -8 -19 -17 -59
-21 -89 -4 -30 -13 -68 -20 -85 -7 -17 -16 -59 -19 -94 -4 -34 -13 -79 -20
-100 -7 -20 -16 -71 -20 -112 -4 -41 -13 -97 -21 -125 -7 -27 -16 -93 -20
-145 -4 -52 -11 -115 -16 -140 -6 -25 -20 -166 -31 -315 l-22 -270 -3 -9100
c-3 -6115 -1 -9116 6 -9150 6 -27 15 -147 21 -265 6 -118 17 -244 25 -280 8
-36 17 -108 21 -160 3 -52 11 -106 16 -120 5 -14 16 -74 24 -135 7 -60 20
-139 29 -175 8 -36 15 -77 15 -91 0 -15 6 -42 14 -60 8 -19 17 -61 21 -94 4
-33 13 -74 20 -91 7 -17 16 -51 20 -75 3 -24 15 -70 26 -102 10 -31 19 -67 19
-80 1 -12 9 -40 20 -62 11 -22 19 -50 20 -61 0 -12 9 -41 20 -65 11 -24 20
-54 20 -66 0 -12 8 -42 19 -65 23 -53 49 -130 62 -182 5 -21 16 -48 24 -60 8
-11 15 -30 15 -41 0 -11 9 -37 20 -58 11 -20 20 -42 20 -48 0 -9 14 -41 71
-165 11 -22 19 -45 19 -51 0 -6 6 -16 14 -22 8 -7 17 -27 20 -45 4 -19 13 -39
21 -46 8 -7 17 -27 21 -45 3 -19 12 -36 19 -39 8 -3 17 -21 21 -40 3 -20 10
-36 14 -36 4 0 15 -17 24 -37 9 -21 21 -45 26 -53 6 -8 15 -26 20 -40 15 -38
90 -173 106 -191 8 -8 14 -19 14 -23 0 -4 9 -19 20 -33 11 -14 20 -34 20 -45
0 -10 6 -21 14 -24 7 -3 21 -23 31 -45 10 -21 22 -39 27 -39 4 0 8 -6 8 -13 0
-7 7 -22 15 -32 8 -11 30 -42 47 -70 18 -27 37 -55 43 -62 5 -6 20 -27 33 -45
13 -18 43 -60 67 -93 25 -33 45 -63 45 -67 0 -5 8 -16 18 -27 9 -10 25 -29 35
-42 48 -65 155 -198 170 -213 9 -10 17 -20 17 -24 0 -4 28 -37 63 -74 34 -37
80 -88 102 -114 88 -102 537 -544 553 -544 2 0 21 -15 42 -32 20 -18 52 -46
71 -63 19 -16 61 -51 94 -77 33 -26 67 -54 76 -63 9 -8 19 -15 23 -15 5 0 29
-17 55 -38 25 -21 66 -51 91 -67 25 -17 48 -34 51 -38 4 -5 16 -14 27 -20 11
-7 68 -45 127 -84 59 -40 110 -73 114 -73 5 0 16 -9 26 -20 10 -11 27 -22 38
-26 12 -4 41 -21 66 -38 25 -17 76 -47 114 -66 37 -19 67 -37 67 -41 0 -4 12
-10 27 -14 14 -3 38 -15 51 -26 14 -10 33 -19 43 -19 10 0 21 -4 24 -10 7 -12
147 -80 164 -80 6 0 11 -4 11 -9 0 -5 10 -13 22 -17 13 -3 48 -17 78 -31 30
-14 69 -30 85 -37 17 -7 50 -23 75 -34 25 -12 57 -24 72 -28 15 -3 32 -12 39
-20 6 -8 21 -14 33 -14 12 0 37 -8 56 -19 19 -10 51 -22 70 -26 19 -4 44 -13
55 -20 11 -7 36 -16 55 -20 19 -4 44 -13 55 -21 11 -7 38 -16 60 -19 22 -4 50
-13 62 -21 12 -7 41 -16 65 -20 24 -3 52 -12 64 -19 12 -8 39 -17 60 -20 21
-4 65 -15 97 -26 31 -10 66 -19 78 -19 11 0 32 -6 47 -14 15 -8 61 -19 101
-25 41 -7 80 -16 85 -21 6 -4 46 -13 89 -19 43 -6 86 -15 96 -21 10 -5 61 -14
112 -20 52 -6 108 -16 124 -21 17 -6 80 -14 141 -19 62 -5 124 -14 139 -20 15
-6 100 -15 189 -21 88 -6 202 -15 251 -21 63 -8 3057 -12 10150 -15 9099 -3
10073 -2 10199 12 76 9 210 20 297 25 87 5 167 13 177 19 10 5 75 14 144 20
70 5 136 14 146 20 11 6 67 15 126 20 59 6 115 15 126 21 10 5 53 15 94 21 42
5 92 17 111 25 19 7 48 14 65 14 16 0 56 9 87 19 32 11 78 22 102 25 24 4 55
13 70 20 14 8 51 17 81 21 30 4 64 13 75 20 11 7 39 16 63 19 24 4 53 13 65
20 12 8 40 17 61 21 21 3 48 12 60 20 12 7 37 16 56 20 19 4 44 13 55 20 11 7
34 15 52 19 17 4 48 16 69 27 21 10 46 19 55 19 10 0 30 7 46 15 54 28 142 65
153 65 7 0 24 6 38 14 15 8 54 26 87 41 33 15 67 31 75 36 8 5 26 14 40 20 24
11 90 44 168 84 22 11 46 25 53 32 8 6 26 14 42 18 15 4 27 11 27 15 0 4 17
15 38 24 20 9 55 27 77 41 22 13 50 29 63 34 12 6 28 15 35 21 23 20 88 60 96
60 5 0 14 6 20 14 7 8 27 22 46 31 19 9 35 20 35 25 0 6 6 10 14 10 8 0 28 11
44 25 17 14 33 25 38 25 4 0 14 7 23 15 9 9 57 45 106 80 50 35 102 73 117 84
14 12 33 21 42 21 9 0 16 7 16 15 0 9 8 19 18 22 9 4 26 15 37 25 11 10 45 39
75 64 30 25 74 62 98 82 23 20 53 46 65 57 13 11 57 49 97 85 68 60 105 95
252 236 29 29 91 96 138 149 47 54 102 116 123 137 20 22 37 44 37 48 0 5 6
13 14 17 8 4 49 51 91 103 42 52 81 97 86 98 5 2 9 8 9 14 0 6 17 31 38 57 21
25 50 64 65 86 16 22 44 60 63 85 19 25 37 52 41 60 3 8 12 22 20 30 8 8 28
38 46 65 17 28 34 52 38 55 3 3 14 19 23 35 9 17 25 44 36 60 11 17 29 46 40
65 11 19 32 53 45 75 13 22 29 52 36 68 6 15 15 27 19 27 4 0 15 17 24 38 16
38 27 57 57 102 9 14 20 37 24 50 4 14 13 32 20 40 7 8 16 26 20 40 4 14 13
32 20 40 7 8 18 32 25 53 6 20 15 37 20 37 4 0 11 15 14 34 4 19 13 39 20 45
8 7 17 24 20 39 7 26 30 80 67 154 11 20 19 46 19 57 0 11 7 26 15 35 8 8 18
30 22 48 3 18 14 49 25 68 10 19 18 43 18 53 0 10 9 35 20 57 11 22 20 47 20
57 1 10 9 36 20 58 11 22 20 49 20 60 0 11 7 33 16 50 8 16 20 52 26 80 6 27
14 55 19 61 5 6 14 38 20 70 6 32 17 71 25 86 8 15 14 38 14 52 0 14 9 52 19
83 11 32 23 83 26 113 4 30 13 69 20 86 7 17 16 60 20 95 4 35 13 78 20 94 6
17 15 64 19 105 4 41 13 98 21 125 7 28 16 91 20 140 3 50 12 122 20 160 8 39
19 149 25 245 6 96 17 197 23 225 18 75 17 18497 0 18572 -7 29 -17 139 -23
245 -6 106 -15 211 -21 233 -5 22 -16 92 -23 155 -17 141 -43 311 -57 365 -6
22 -17 74 -24 115 -13 70 -31 148 -56 245 -6 22 -17 67 -24 100 -13 57 -33
123 -56 190 -6 17 -17 55 -25 86 -8 31 -21 69 -29 85 -8 16 -15 38 -15 49 0
11 -9 38 -20 60 -11 22 -19 49 -20 59 0 10 -9 37 -19 60 -10 23 -31 75 -47
116 -15 41 -34 84 -41 95 -7 11 -13 28 -13 38 0 10 -8 35 -19 55 -37 74 -60
128 -67 154 -3 15 -12 32 -20 39 -7 6 -16 26 -20 45 -3 19 -9 34 -13 34 -5 0
-49 87 -76 150 -3 8 -17 33 -30 55 -14 22 -30 51 -36 65 -6 14 -15 32 -20 40
-5 8 -16 29 -24 46 -7 17 -21 36 -29 44 -9 7 -16 18 -16 25 0 6 -9 22 -20 35
-11 13 -20 31 -20 41 0 10 -6 22 -14 26 -8 4 -21 24 -30 43 -29 60 -47 90 -55
90 -5 0 -14 15 -22 33 -7 17 -19 36 -26 40 -7 4 -13 13 -13 18 0 6 -11 25 -25
43 -14 18 -25 38 -25 44 0 7 -4 12 -9 12 -6 0 -16 11 -23 24 -15 28 -87 134
-106 156 -45 53 -102 130 -102 139 0 6 -4 11 -8 11 -4 0 -26 24 -47 52 -22 29
-47 60 -55 69 -8 9 -31 36 -50 59 -89 110 -210 241 -354 385 -138 138 -217
212 -426 396 -19 17 -52 42 -72 55 -21 13 -38 29 -38 34 0 6 -4 10 -9 10 -6 0
-65 42 -131 93 -128 97 -143 107 -203 145 -20 13 -37 28 -37 33 0 5 -4 9 -10
9 -9 0 -73 39 -101 62 -21 18 -68 45 -101 60 -16 7 -28 16 -28 20 0 4 -15 15
-32 23 -18 9 -51 27 -73 40 -22 14 -53 32 -70 41 -16 8 -48 26 -70 40 -22 13
-56 31 -75 40 -19 9 -37 19 -40 23 -3 4 -39 24 -80 45 -41 20 -82 40 -90 45
-8 5 -26 14 -40 20 -14 6 -32 15 -40 20 -16 9 -89 43 -175 81 -27 12 -61 27
-75 35 -14 7 -39 16 -57 19 -17 4 -37 14 -44 22 -6 8 -19 14 -28 14 -9 0 -34
9 -56 20 -22 11 -44 20 -50 20 -6 0 -27 8 -47 19 -20 10 -52 21 -70 25 -18 3
-46 13 -63 20 -28 14 -73 29 -175 61 -25 8 -65 20 -90 28 -125 40 -187 57
-208 57 -13 0 -36 7 -51 15 -16 8 -59 19 -97 25 -37 6 -73 15 -79 19 -5 5 -43
14 -84 20 -40 6 -81 16 -91 21 -9 5 -57 14 -105 20 -48 6 -96 15 -106 20 -9 5
-61 15 -114 21 -54 5 -108 14 -121 19 -13 5 -61 12 -107 15 -45 3 -154 15
-242 25 -376 45 -123 44 -10480 45 -5412 1 -9885 -2 -9940 -6z m11475 -7145
c163 -50 252 -127 323 -276 15 -31 27 -64 27 -73 0 -9 9 -28 20 -42 11 -14 20
-35 20 -45 0 -11 9 -31 20 -45 11 -14 20 -32 20 -41 0 -8 9 -29 19 -46 10 -17
22 -46 26 -63 3 -18 11 -33 15 -33 5 0 14 -18 20 -40 6 -21 15 -42 20 -45 5
-3 14 -25 21 -48 6 -23 17 -49 24 -57 7 -8 16 -29 20 -47 3 -17 12 -37 20 -43
7 -6 16 -29 20 -50 4 -21 13 -41 21 -44 8 -3 14 -13 14 -23 0 -10 12 -40 25
-68 14 -27 25 -57 25 -66 0 -9 7 -22 15 -29 8 -7 18 -30 21 -51 4 -21 12 -40
20 -43 7 -3 16 -21 19 -40 4 -19 13 -40 21 -47 7 -6 16 -27 20 -48 4 -20 12
-43 19 -51 8 -8 17 -28 21 -45 3 -16 12 -37 20 -45 7 -8 16 -28 20 -45 7 -28
16 -50 64 -144 11 -22 20 -49 20 -59 0 -10 9 -29 20 -42 11 -13 20 -32 20 -42
0 -10 8 -36 19 -56 10 -20 29 -59 41 -87 12 -27 30 -66 40 -85 9 -19 20 -48
24 -65 4 -16 13 -37 20 -45 8 -8 17 -28 20 -45 4 -16 13 -37 21 -45 7 -8 15
-31 19 -51 4 -21 13 -42 21 -49 8 -7 17 -27 21 -46 3 -18 12 -38 20 -45 7 -6
16 -26 20 -45 3 -18 12 -38 19 -44 8 -6 17 -26 21 -43 4 -18 15 -48 25 -67 11
-19 19 -42 19 -51 0 -9 7 -22 15 -29 8 -7 17 -27 21 -46 3 -18 12 -38 20 -45
7 -6 16 -27 20 -48 4 -20 15 -47 25 -60 11 -13 19 -30 19 -38 0 -8 8 -31 19
-51 10 -20 29 -59 41 -87 12 -27 30 -66 40 -85 10 -19 21 -50 25 -67 3 -18 11
-33 16 -33 5 0 14 -20 20 -45 6 -24 17 -50 25 -56 8 -6 14 -20 14 -32 0 -11 9
-34 19 -51 10 -17 22 -45 26 -63 3 -17 12 -37 20 -43 7 -6 16 -26 19 -44 4
-19 13 -39 21 -46 8 -7 15 -20 15 -29 0 -9 12 -38 25 -66 14 -27 25 -55 25
-61 0 -6 6 -17 14 -23 8 -7 18 -27 22 -44 4 -18 15 -48 25 -67 11 -19 19 -42
19 -51 0 -9 6 -22 14 -28 8 -7 18 -27 22 -44 6 -31 15 -51 63 -144 11 -23 21
-51 21 -63 0 -11 6 -23 14 -26 8 -3 18 -20 22 -37 3 -18 16 -50 27 -72 11 -22
28 -57 38 -77 11 -20 19 -46 19 -56 0 -11 9 -31 20 -45 11 -14 20 -33 20 -42
0 -9 9 -33 19 -53 42 -82 71 -148 71 -165 0 -9 4 -17 10 -17 5 0 15 -20 21
-45 6 -24 17 -50 25 -56 8 -6 14 -19 14 -28 0 -9 11 -38 25 -66 13 -27 25 -57
25 -66 0 -9 7 -22 15 -29 8 -7 17 -27 21 -46 3 -18 12 -38 19 -44 8 -6 17 -26
20 -43 4 -18 13 -39 20 -47 7 -8 18 -34 24 -57 7 -24 16 -43 21 -43 5 0 12
-17 16 -37 4 -21 15 -49 25 -62 11 -13 19 -33 19 -43 0 -11 9 -31 20 -45 11
-14 20 -36 20 -48 0 -12 9 -32 20 -45 11 -13 20 -33 20 -45 0 -12 9 -34 20
-48 11 -14 20 -31 20 -37 0 -13 26 -75 60 -140 9 -19 21 -49 24 -67 4 -17 13
-34 20 -36 8 -3 16 -21 20 -40 4 -19 13 -40 20 -47 8 -6 17 -29 21 -51 4 -21
11 -39 15 -39 5 0 15 -19 21 -42 7 -24 18 -50 25 -58 6 -8 15 -29 19 -47 3
-17 12 -37 20 -43 7 -6 16 -29 20 -50 4 -21 13 -44 20 -50 8 -6 17 -26 20 -43
4 -18 16 -46 26 -63 10 -17 19 -38 19 -46 0 -9 7 -21 15 -28 8 -7 17 -27 21
-46 3 -18 12 -38 19 -44 8 -6 17 -26 20 -43 4 -18 13 -39 20 -47 7 -8 18 -34
24 -56 6 -23 18 -47 26 -54 8 -7 15 -21 15 -32 0 -10 9 -37 20 -59 11 -21 29
-57 40 -78 11 -22 20 -49 20 -59 0 -11 8 -30 19 -43 10 -13 21 -41 25 -61 4
-21 11 -38 16 -38 5 0 14 -17 21 -37 7 -21 18 -47 25 -58 6 -11 15 -35 19 -52
4 -18 10 -33 15 -33 5 0 14 -17 21 -37 7 -21 18 -47 24 -58 7 -11 16 -31 20
-45 3 -14 15 -43 25 -65 10 -22 28 -61 39 -86 12 -25 21 -53 21 -61 0 -9 7
-21 15 -28 8 -7 17 -27 21 -46 3 -18 12 -38 19 -44 8 -6 17 -26 21 -43 3 -18
15 -43 25 -56 11 -13 19 -32 19 -43 0 -10 9 -37 20 -59 11 -21 29 -57 40 -78
11 -22 20 -46 20 -54 0 -8 9 -24 20 -37 11 -13 20 -33 20 -45 0 -12 8 -33 19
-46 10 -13 21 -41 25 -61 4 -21 11 -38 16 -38 5 0 15 -20 21 -45 6 -25 15 -45
20 -45 4 0 13 -19 20 -42 6 -24 17 -50 24 -58 7 -8 16 -29 20 -47 3 -17 12
-37 20 -43 7 -6 16 -26 19 -44 4 -19 13 -39 21 -46 8 -7 17 -27 21 -46 3 -18
12 -38 20 -45 7 -6 16 -26 20 -45 3 -18 12 -38 20 -45 7 -6 16 -26 20 -45 3
-18 12 -38 19 -44 8 -6 17 -26 20 -43 4 -18 16 -46 26 -63 10 -17 19 -39 19
-49 0 -9 9 -28 20 -42 11 -14 20 -33 20 -42 0 -9 9 -34 19 -56 11 -22 24 -51
30 -65 6 -14 15 -32 19 -40 9 -14 27 -54 73 -157 12 -27 29 -64 39 -83 10 -19
21 -50 25 -67 3 -18 11 -33 15 -33 5 0 15 -19 22 -42 7 -24 18 -49 25 -56 7
-7 13 -21 13 -30 0 -9 12 -39 25 -67 14 -27 25 -55 25 -61 0 -6 6 -17 14 -23
8 -7 17 -27 20 -45 4 -19 13 -39 20 -46 8 -6 17 -29 21 -50 4 -21 13 -41 20
-44 8 -3 17 -22 21 -43 4 -21 15 -49 25 -62 11 -13 19 -30 19 -38 0 -8 8 -31
19 -51 10 -20 27 -57 38 -82 40 -89 66 -146 84 -182 11 -20 19 -43 19 -51 0
-8 9 -26 20 -40 11 -14 20 -34 20 -45 0 -10 8 -30 19 -43 10 -13 22 -38 25
-56 4 -17 13 -37 21 -43 7 -6 16 -26 19 -45 4 -19 11 -35 16 -35 5 0 15 -20
21 -45 6 -25 15 -45 19 -45 5 0 13 -15 19 -33 6 -19 20 -51 31 -72 11 -22 20
-47 20 -56 0 -9 7 -22 15 -29 8 -7 17 -27 21 -46 3 -18 12 -38 20 -45 8 -6 14
-16 14 -22 0 -10 35 -88 71 -159 10 -20 19 -44 19 -53 0 -9 9 -28 20 -42 11
-14 20 -35 20 -45 0 -11 9 -31 20 -45 11 -14 20 -33 20 -42 0 -9 9 -29 20 -46
11 -16 20 -37 20 -46 0 -9 8 -27 19 -40 10 -13 22 -38 25 -56 4 -17 14 -37 22
-44 8 -6 14 -19 14 -28 0 -9 9 -33 20 -54 11 -20 20 -43 20 -51 0 -7 8 -24 19
-37 10 -13 22 -39 26 -57 4 -18 13 -45 21 -60 18 -35 18 -132 0 -158 -8 -11
-18 -37 -21 -58 -4 -21 -14 -40 -21 -43 -8 -3 -14 -10 -14 -17 0 -6 -21 -54
-46 -106 -25 -52 -55 -115 -66 -140 -12 -25 -25 -52 -30 -60 -7 -14 -13 -27
-39 -85 -5 -11 -13 -27 -18 -35 -5 -8 -14 -26 -20 -40 -6 -14 -15 -32 -19 -40
-31 -56 -52 -101 -52 -113 0 -8 -8 -25 -19 -38 -10 -13 -22 -35 -26 -49 -4
-14 -13 -32 -20 -40 -7 -8 -18 -32 -25 -52 -6 -21 -15 -38 -20 -38 -4 0 -11
-15 -14 -34 -4 -19 -13 -39 -21 -46 -8 -7 -17 -27 -21 -46 -3 -19 -12 -38 -19
-42 -7 -4 -18 -24 -24 -44 -7 -21 -16 -38 -21 -38 -4 0 -13 -20 -19 -45 -6
-25 -15 -45 -20 -45 -5 0 -13 -15 -17 -32 -3 -18 -15 -44 -25 -57 -11 -13 -19
-30 -19 -38 0 -8 -9 -26 -20 -40 -11 -14 -20 -33 -20 -42 0 -9 -9 -29 -20 -46
-11 -16 -20 -37 -20 -46 0 -9 -9 -28 -20 -42 -11 -14 -20 -32 -20 -40 0 -8 -8
-25 -19 -38 -10 -13 -22 -38 -25 -56 -4 -17 -14 -37 -22 -44 -8 -6 -14 -19
-14 -29 0 -9 -8 -28 -19 -41 -10 -13 -22 -38 -25 -56 -4 -17 -13 -37 -21 -43
-8 -6 -17 -24 -20 -40 -3 -16 -13 -34 -21 -41 -8 -6 -14 -19 -14 -29 0 -9 -9
-28 -19 -42 -11 -13 -23 -38 -27 -54 -4 -16 -12 -36 -20 -44 -7 -8 -16 -28
-20 -45 -3 -16 -12 -37 -19 -45 -7 -8 -17 -30 -23 -48 -6 -18 -18 -40 -27 -48
-8 -8 -15 -25 -15 -36 0 -11 -9 -31 -20 -45 -11 -14 -20 -32 -20 -40 0 -8 -9
-26 -20 -40 -11 -14 -20 -35 -20 -45 0 -11 -9 -31 -20 -45 -11 -14 -20 -35
-20 -45 0 -11 -9 -31 -20 -45 -11 -14 -20 -33 -20 -43 0 -10 -9 -29 -20 -43
-11 -14 -20 -31 -20 -39 0 -7 -9 -26 -20 -43 -11 -16 -20 -37 -20 -46 0 -9 -8
-27 -19 -40 -10 -13 -22 -38 -25 -56 -4 -17 -13 -34 -20 -36 -8 -3 -17 -22
-20 -42 -4 -20 -13 -38 -21 -41 -7 -3 -16 -20 -19 -39 -4 -18 -13 -38 -20 -44
-8 -7 -17 -27 -20 -45 -4 -19 -13 -39 -21 -46 -7 -6 -17 -26 -20 -43 -4 -18
-13 -39 -20 -47 -7 -8 -18 -32 -25 -52 -6 -21 -16 -38 -21 -38 -5 0 -9 -6 -9
-12 0 -12 -33 -87 -71 -160 -10 -20 -19 -43 -19 -51 0 -8 -9 -24 -20 -37 -11
-13 -20 -30 -20 -39 0 -9 -9 -29 -20 -46 -11 -16 -20 -37 -20 -46 0 -9 -9 -26
-20 -39 -11 -13 -20 -28 -20 -35 0 -16 -59 -133 -71 -140 -5 -4 -9 -17 -9 -29
0 -13 -9 -35 -20 -49 -11 -14 -20 -31 -20 -39 0 -7 -9 -26 -20 -43 -11 -16
-20 -37 -20 -46 0 -9 -8 -27 -19 -40 -10 -13 -22 -38 -25 -56 -4 -17 -14 -37
-21 -43 -8 -7 -17 -28 -21 -47 -4 -19 -12 -37 -19 -39 -7 -3 -16 -20 -19 -39
-4 -18 -13 -38 -21 -45 -8 -7 -17 -28 -21 -47 -4 -19 -12 -37 -20 -40 -7 -2
-16 -19 -20 -36 -3 -18 -15 -43 -25 -56 -11 -13 -19 -32 -19 -41 0 -10 -6 -23
-14 -29 -8 -7 -18 -27 -22 -44 -3 -18 -15 -43 -25 -56 -11 -13 -19 -30 -19
-38 0 -8 -9 -26 -20 -40 -11 -14 -20 -33 -20 -42 0 -9 -9 -29 -20 -46 -11 -16
-20 -37 -20 -46 0 -9 -9 -28 -20 -42 -11 -14 -20 -34 -20 -45 0 -10 -9 -29
-19 -41 -11 -13 -23 -35 -26 -51 -3 -16 -12 -31 -19 -33 -7 -3 -16 -18 -19
-34 -11 -54 -125 -153 -176 -153 -23 0 -91 33 -91 45 0 5 -9 16 -20 23 -11 7
-20 19 -20 28 0 9 -9 27 -20 41 -11 14 -20 32 -20 39 0 8 -9 31 -20 51 -11 21
-20 46 -20 56 0 10 -9 30 -20 44 -11 14 -20 34 -20 45 0 10 -8 36 -19 56 -18
36 -44 93 -84 182 -11 25 -27 61 -37 80 -10 19 -21 49 -24 67 -4 17 -14 37
-22 44 -8 6 -14 22 -14 34 0 12 -9 34 -20 48 -11 14 -20 31 -20 39 0 7 -9 29
-19 49 -11 20 -23 53 -26 73 -4 20 -11 36 -16 36 -4 0 -14 19 -21 43 -7 23
-18 48 -25 55 -7 7 -15 28 -19 47 -3 19 -12 39 -20 46 -7 6 -16 26 -20 45 -3
18 -12 38 -20 45 -7 6 -16 26 -20 45 -3 18 -12 38 -20 45 -7 6 -16 27 -20 48
-4 20 -14 50 -24 66 -10 17 -20 42 -24 58 -3 15 -11 27 -16 27 -5 0 -12 17
-16 38 -4 20 -15 48 -25 61 -11 13 -19 31 -19 40 0 9 -9 30 -20 46 -11 17 -20
37 -20 45 0 8 -8 31 -18 50 -11 19 -22 48 -26 64 -4 15 -13 34 -20 42 -7 7
-16 31 -20 53 -3 23 -11 41 -16 41 -6 0 -15 20 -22 45 -7 25 -15 45 -19 45 -4
0 -13 17 -19 38 -6 20 -18 51 -25 67 -50 109 -65 145 -65 158 0 8 -7 20 -15
27 -8 7 -17 27 -21 46 -3 18 -12 38 -19 44 -8 6 -17 25 -21 42 -3 17 -15 45
-25 62 -10 17 -19 41 -19 52 0 12 -7 27 -15 34 -8 7 -17 27 -21 46 -3 18 -12
38 -19 44 -8 6 -17 26 -20 43 -4 18 -16 46 -26 63 -10 17 -19 41 -19 52 0 11
-7 27 -15 35 -7 8 -17 28 -21 43 -4 16 -15 46 -25 67 -11 20 -27 54 -38 75
-10 20 -21 50 -25 67 -4 16 -12 33 -18 36 -5 3 -14 26 -19 50 -6 24 -16 51
-23 59 -8 8 -17 29 -21 47 -3 17 -13 37 -21 44 -8 6 -14 19 -14 28 0 9 -12 39
-25 66 -14 28 -25 57 -25 66 0 9 -6 22 -14 28 -8 7 -17 30 -21 51 -4 21 -12
41 -20 44 -7 2 -16 23 -20 45 -4 22 -13 45 -21 51 -7 7 -16 27 -20 46 -3 18
-12 38 -20 45 -7 6 -16 27 -20 48 -4 20 -15 47 -25 60 -11 13 -19 34 -19 46 0
12 -6 28 -14 34 -8 7 -18 27 -21 44 -4 18 -16 46 -26 63 -10 17 -19 39 -19 48
0 9 -8 34 -19 54 -10 20 -29 60 -41 87 -12 28 -31 67 -41 87 -11 20 -19 45
-19 54 0 9 -9 31 -19 48 -10 17 -22 46 -26 64 -3 17 -11 32 -15 32 -5 0 -14
19 -21 43 -6 23 -17 49 -24 57 -7 8 -16 32 -20 52 -4 21 -13 42 -21 49 -8 6
-14 18 -14 27 0 14 -11 40 -66 158 -13 28 -24 58 -24 66 0 9 -6 21 -14 27 -8
7 -17 30 -21 51 -4 21 -13 44 -21 50 -7 7 -16 27 -20 46 -3 18 -12 38 -19 44
-8 6 -17 26 -20 43 -4 18 -16 46 -26 63 -10 17 -19 39 -19 48 0 9 -9 34 -19
54 -35 69 -61 129 -61 144 0 8 -9 25 -20 38 -11 13 -20 32 -20 42 0 10 -9 37
-20 59 -11 21 -29 57 -40 78 -11 22 -20 48 -20 57 0 9 -9 31 -19 48 -10 17
-22 45 -26 63 -3 17 -12 37 -20 43 -7 6 -16 26 -19 44 -4 19 -13 39 -21 46 -8
7 -15 20 -15 29 0 9 -12 39 -25 66 -14 28 -25 57 -25 66 0 9 -7 22 -15 29 -8
7 -17 27 -21 46 -3 18 -12 38 -20 45 -7 6 -16 27 -20 48 -4 20 -12 43 -19 51
-7 8 -18 33 -24 55 -6 22 -18 49 -26 59 -8 11 -15 30 -15 42 0 12 -6 27 -14
33 -8 7 -18 27 -21 44 -4 18 -16 46 -26 63 -10 17 -19 40 -19 51 0 11 -9 30
-20 43 -11 13 -20 32 -20 44 0 12 -9 35 -20 51 -11 17 -20 37 -20 46 0 9 -8
27 -19 40 -10 13 -21 41 -25 62 -4 20 -11 37 -16 37 -5 0 -14 19 -20 42 -7 22
-18 51 -25 62 -7 12 -16 35 -20 53 -3 17 -12 37 -20 43 -7 6 -16 29 -20 51 -4
21 -11 39 -15 39 -5 0 -14 17 -20 38 -7 20 -18 44 -25 52 -7 8 -16 31 -20 50
-4 19 -13 42 -20 50 -7 8 -16 29 -20 47 -3 17 -13 37 -20 43 -8 7 -17 28 -21
49 -4 20 -12 43 -19 51 -7 8 -18 34 -24 58 -7 23 -16 42 -21 42 -5 0 -12 17
-16 38 -4 20 -15 48 -25 61 -11 13 -19 34 -19 46 0 12 -6 28 -14 34 -8 7 -18
27 -21 44 -4 18 -16 46 -26 63 -10 17 -19 41 -19 52 0 11 -6 27 -14 35 -8 8
-19 32 -25 54 -6 23 -18 46 -26 53 -8 7 -15 19 -15 27 0 14 -38 102 -66 155
-8 14 -14 32 -14 40 0 7 -12 36 -25 63 -14 28 -25 57 -25 66 0 9 -7 22 -15 29
-8 7 -17 27 -21 46 -3 18 -12 38 -20 45 -8 6 -14 19 -14 29 0 9 -11 38 -25 64
-14 26 -25 55 -25 65 0 10 -7 24 -15 31 -8 7 -17 27 -21 46 -3 18 -12 38 -19
44 -8 6 -17 26 -20 43 -4 18 -13 39 -21 47 -7 8 -17 35 -23 59 -5 24 -14 47
-19 50 -6 3 -14 20 -18 36 -3 17 -12 37 -19 45 -7 8 -18 33 -24 55 -6 22 -18
49 -26 59 -8 11 -15 30 -15 42 0 12 -9 33 -20 47 -11 14 -20 33 -20 42 0 9 -9
33 -19 53 -37 69 -58 117 -65 147 -4 17 -13 37 -20 45 -8 8 -16 28 -20 44 -4
15 -14 35 -21 43 -8 8 -15 24 -15 35 0 11 -9 35 -19 52 -10 17 -22 45 -26 63
-3 17 -12 37 -20 43 -7 6 -16 26 -19 44 -4 19 -13 39 -20 46 -8 6 -17 29 -21
50 -4 21 -13 44 -21 50 -7 7 -16 27 -20 46 -3 18 -12 38 -20 45 -7 6 -16 27
-20 48 -4 20 -15 47 -25 60 -11 13 -19 33 -19 43 0 11 -9 31 -20 45 -11 14
-20 34 -20 45 0 10 -9 37 -20 59 -11 21 -29 57 -40 78 -11 22 -20 48 -20 58 0
10 -9 32 -20 48 -11 17 -20 37 -20 46 0 9 -9 28 -20 42 -11 14 -20 34 -20 45
0 10 -8 30 -19 43 -10 13 -21 40 -25 60 -4 21 -13 42 -21 49 -8 7 -15 20 -15
29 0 9 -8 32 -19 51 -10 19 -22 50 -25 68 -4 17 -12 32 -16 32 -5 0 -15 19
-21 43 -7 23 -18 49 -25 57 -7 8 -15 32 -19 52 -4 21 -13 42 -20 48 -8 6 -17
26 -20 43 -4 18 -13 39 -20 47 -7 8 -16 26 -20 40 -3 14 -15 43 -25 65 -10 22
-28 61 -39 86 -12 25 -21 53 -21 61 0 9 -6 21 -14 27 -8 7 -18 27 -22 44 -3
18 -14 48 -24 67 -10 19 -24 51 -33 70 -18 42 -56 127 -86 191 -11 25 -21 52
-21 59 0 7 -9 27 -19 44 -10 17 -22 45 -26 63 -3 17 -13 37 -21 44 -8 6 -14
22 -14 34 0 12 -8 33 -19 46 -10 13 -21 40 -25 60 -4 21 -13 42 -21 49 -7 6
-17 26 -20 43 -4 18 -13 39 -20 47 -7 8 -16 29 -20 47 -3 17 -12 37 -20 43 -7
6 -16 29 -20 50 -4 21 -13 44 -21 50 -7 7 -16 27 -20 46 -3 18 -12 38 -19 44
-8 6 -17 26 -21 43 -4 18 -15 48 -25 67 -11 19 -19 42 -19 51 0 9 -7 22 -15
29 -8 7 -17 28 -21 49 -4 20 -12 43 -19 51 -7 8 -18 33 -24 55 -6 22 -18 49
-26 59 -8 11 -15 28 -15 39 0 10 -9 30 -20 44 -11 14 -20 35 -20 45 0 11 -9
31 -20 45 -11 14 -20 33 -20 42 0 9 -9 33 -20 54 -11 20 -20 43 -20 49 0 7
-12 36 -25 63 -14 28 -25 55 -25 61 0 6 -6 17 -14 23 -8 7 -17 27 -20 45 -4
19 -13 39 -20 46 -8 6 -17 29 -21 51 -4 21 -11 39 -15 39 -5 0 -14 17 -19 38
-6 20 -20 55 -31 77 -11 21 -20 47 -20 56 0 9 -7 22 -15 29 -8 7 -17 27 -21
46 -3 18 -12 38 -19 44 -8 6 -17 26 -20 43 -4 18 -13 41 -20 53 -7 11 -18 40
-25 62 -6 23 -15 42 -20 42 -5 0 -12 17 -16 38 -4 20 -15 48 -25 61 -11 13
-19 33 -19 43 0 11 -9 31 -20 45 -11 14 -20 36 -20 48 0 12 -9 32 -20 45 -11
13 -20 33 -20 45 0 12 -9 32 -20 45 -11 13 -20 32 -20 43 0 11 -9 34 -19 51
-10 17 -22 45 -26 63 -3 17 -13 37 -21 44 -8 6 -14 18 -14 26 0 13 -36 99 -65
153 -7 14 -16 39 -19 57 -4 17 -13 37 -21 43 -7 6 -16 26 -19 44 -4 19 -13 39
-20 46 -8 6 -17 29 -21 50 -4 21 -13 44 -21 50 -7 7 -16 27 -20 46 -3 18 -12
38 -19 44 -8 6 -16 29 -20 50 -4 21 -13 44 -20 50 -8 6 -17 26 -20 43 -4 18
-13 39 -20 47 -7 8 -18 34 -24 58 -7 23 -16 42 -21 42 -5 0 -12 17 -16 38 -4
20 -12 44 -19 52 -8 8 -17 29 -21 45 -4 17 -15 41 -26 54 -10 13 -18 34 -18
46 0 12 -9 32 -20 45 -11 13 -20 32 -20 42 0 10 -9 37 -20 59 -48 94 -57 116
-64 144 -4 17 -13 37 -21 45 -7 8 -15 31 -19 51 -4 21 -13 42 -20 48 -8 7 -17
27 -20 45 -4 19 -13 39 -20 46 -8 6 -17 29 -21 50 -4 21 -13 44 -21 50 -7 7
-16 27 -20 46 -3 18 -12 38 -19 44 -8 6 -17 26 -21 43 -4 18 -15 48 -25 67
-11 19 -19 42 -19 51 0 9 -7 22 -15 29 -8 7 -17 27 -21 46 -3 18 -12 38 -20
45 -7 6 -16 26 -20 45 -3 18 -12 38 -19 44 -8 6 -17 26 -20 43 -4 18 -16 46
-26 63 -10 17 -19 40 -19 51 0 12 -6 26 -14 32 -8 7 -18 27 -22 44 -3 18 -15
43 -25 56 -11 13 -19 33 -19 44 0 11 -10 35 -22 55 -18 29 -21 50 -22 138 0
93 2 106 22 127 12 13 22 27 22 31 0 12 43 56 55 56 6 0 18 9 28 20 9 11 28
20 43 20 14 0 35 6 47 13 28 15 1170 23 3172 20 1289 -1 1404 -3 1455 -19z
m11473 -4 c47 -18 89 -49 125 -94 24 -30 32 -68 32 -149 0 -63 -5 -91 -20
-120 -11 -20 -20 -43 -20 -51 0 -7 -8 -24 -19 -37 -10 -13 -24 -41 -30 -61 -7
-21 -16 -38 -21 -38 -4 0 -10 -14 -14 -32 -3 -17 -12 -39 -20 -47 -7 -9 -19
-33 -26 -53 -6 -21 -15 -38 -20 -38 -5 0 -12 -15 -16 -32 -3 -18 -15 -44 -25
-57 -11 -13 -19 -30 -19 -38 0 -8 -9 -26 -20 -40 -11 -14 -20 -33 -20 -43 0
-9 -9 -27 -20 -40 -11 -13 -20 -32 -20 -42 0 -11 -9 -31 -20 -45 -11 -14 -20
-33 -20 -43 0 -10 -9 -29 -20 -43 -11 -14 -20 -34 -20 -45 0 -10 -9 -31 -20
-45 -11 -14 -20 -32 -20 -40 0 -8 -8 -25 -19 -38 -10 -13 -22 -38 -25 -56 -4
-17 -14 -37 -22 -44 -8 -6 -14 -19 -14 -29 0 -9 -8 -28 -19 -41 -10 -13 -22
-38 -25 -56 -4 -17 -13 -37 -21 -43 -8 -6 -17 -24 -20 -40 -3 -16 -12 -34 -20
-40 -7 -6 -16 -26 -19 -44 -4 -19 -13 -39 -21 -46 -8 -7 -15 -18 -15 -25 0 -6
-11 -33 -25 -59 -14 -26 -25 -53 -25 -61 0 -7 -6 -20 -14 -28 -8 -8 -19 -33
-26 -55 -6 -23 -15 -42 -20 -42 -6 0 -10 -6 -10 -12 0 -12 -41 -104 -61 -138
-5 -8 -14 -26 -20 -40 -6 -14 -29 -63 -51 -110 -22 -47 -49 -103 -59 -125 -10
-22 -39 -84 -64 -137 -25 -53 -45 -101 -45 -106 0 -5 -6 -15 -14 -21 -8 -7
-17 -27 -20 -45 -4 -19 -13 -39 -21 -46 -8 -7 -17 -27 -21 -46 -3 -18 -12 -38
-19 -44 -8 -6 -17 -24 -20 -40 -3 -16 -13 -34 -20 -40 -8 -7 -17 -27 -21 -46
-3 -18 -12 -38 -20 -45 -8 -6 -14 -17 -14 -24 0 -6 -11 -33 -25 -59 -14 -26
-25 -53 -25 -60 0 -7 -9 -21 -20 -31 -11 -10 -20 -26 -20 -36 0 -10 -11 -39
-25 -65 -14 -26 -25 -53 -25 -60 0 -8 -4 -14 -10 -14 -5 0 -10 -6 -10 -14 0
-7 -11 -34 -25 -60 -14 -26 -25 -53 -25 -60 0 -7 -9 -23 -20 -36 -11 -13 -20
-33 -20 -45 0 -13 -7 -28 -14 -35 -8 -6 -20 -28 -27 -48 -6 -20 -17 -44 -24
-52 -7 -8 -16 -29 -20 -47 -3 -17 -12 -37 -20 -43 -8 -6 -17 -24 -20 -40 -3
-16 -12 -34 -20 -40 -7 -6 -16 -26 -19 -44 -4 -19 -13 -39 -21 -46 -8 -7 -17
-28 -21 -47 -4 -19 -12 -37 -19 -39 -7 -3 -16 -20 -19 -39 -4 -18 -13 -38 -21
-45 -8 -7 -15 -18 -15 -25 0 -6 -11 -33 -25 -59 -14 -26 -25 -52 -25 -57 0 -6
-9 -22 -20 -36 -11 -14 -20 -35 -20 -45 0 -11 -9 -31 -20 -45 -11 -14 -20 -33
-20 -43 0 -9 -9 -27 -20 -40 -11 -13 -20 -33 -20 -45 0 -12 -9 -32 -20 -45
-11 -13 -20 -30 -20 -39 0 -9 -9 -29 -20 -46 -11 -16 -20 -37 -20 -46 0 -9 -9
-26 -20 -39 -11 -13 -20 -29 -20 -36 0 -7 -11 -34 -25 -60 -14 -26 -25 -53
-25 -59 0 -7 -7 -18 -15 -25 -8 -7 -15 -20 -15 -30 0 -9 -8 -28 -19 -41 -10
-13 -22 -38 -25 -56 -4 -17 -13 -37 -21 -43 -8 -6 -17 -24 -20 -40 -3 -16 -12
-34 -20 -40 -7 -6 -16 -26 -19 -44 -4 -19 -13 -39 -21 -46 -7 -6 -17 -24 -20
-40 -3 -16 -13 -34 -20 -40 -8 -7 -17 -27 -21 -46 -3 -18 -12 -38 -19 -44 -8
-6 -17 -26 -21 -43 -3 -18 -15 -43 -25 -56 -11 -13 -19 -31 -19 -40 0 -9 -9
-29 -20 -46 -11 -16 -20 -37 -20 -46 0 -9 -9 -26 -20 -39 -11 -13 -20 -31 -20
-40 0 -10 -9 -29 -20 -43 -11 -14 -20 -34 -20 -45 0 -11 -7 -27 -15 -35 -7 -8
-17 -28 -21 -43 -4 -16 -15 -40 -26 -53 -10 -13 -18 -31 -18 -41 0 -9 -9 -27
-20 -40 -11 -13 -20 -29 -20 -37 0 -8 -9 -31 -19 -51 -37 -71 -71 -147 -71
-158 0 -7 -6 -17 -14 -23 -8 -7 -17 -27 -20 -45 -4 -19 -13 -39 -21 -46 -7 -6
-17 -24 -20 -40 -3 -16 -13 -34 -20 -40 -8 -7 -17 -28 -21 -47 -4 -19 -12 -37
-20 -40 -7 -2 -16 -19 -20 -36 -3 -18 -12 -39 -19 -47 -7 -8 -18 -34 -24 -57
-7 -24 -16 -43 -21 -43 -4 0 -12 -15 -16 -32 -3 -18 -15 -44 -25 -57 -11 -13
-19 -29 -19 -37 0 -11 -41 -99 -101 -216 -10 -20 -19 -42 -19 -48 0 -7 -9 -23
-20 -37 -11 -14 -20 -33 -20 -43 0 -9 -9 -27 -20 -40 -11 -13 -20 -33 -20 -45
0 -12 -8 -33 -19 -46 -10 -13 -22 -38 -25 -56 -4 -17 -13 -37 -21 -43 -8 -6
-17 -24 -20 -40 -3 -16 -12 -34 -20 -40 -7 -6 -16 -26 -19 -44 -4 -19 -13 -39
-21 -46 -8 -7 -17 -27 -21 -46 -3 -18 -12 -38 -19 -44 -8 -6 -17 -25 -20 -41
-4 -17 -13 -33 -20 -35 -7 -3 -16 -20 -19 -39 -4 -18 -13 -38 -21 -45 -7 -6
-17 -26 -21 -43 -3 -18 -15 -43 -25 -56 -11 -13 -19 -33 -19 -43 0 -11 -9 -31
-20 -45 -11 -14 -20 -33 -20 -43 0 -9 -9 -27 -20 -40 -11 -13 -20 -30 -20 -39
0 -9 -9 -29 -20 -46 -11 -16 -20 -37 -20 -46 0 -9 -9 -26 -20 -39 -11 -13 -20
-33 -20 -45 0 -13 -7 -28 -14 -35 -8 -6 -20 -28 -27 -48 -7 -20 -18 -43 -26
-50 -7 -7 -13 -19 -13 -26 0 -8 -20 -53 -45 -102 -25 -48 -45 -93 -45 -100 0
-6 -6 -17 -14 -23 -8 -7 -17 -27 -20 -45 -4 -19 -13 -39 -20 -45 -8 -7 -17
-28 -21 -47 -3 -19 -12 -37 -20 -40 -7 -3 -16 -20 -19 -39 -4 -18 -13 -38 -20
-44 -8 -7 -17 -24 -21 -39 -4 -15 -12 -34 -20 -42 -7 -8 -18 -32 -25 -52 -6
-21 -15 -38 -20 -38 -5 0 -12 -16 -16 -35 -3 -19 -12 -39 -20 -46 -7 -6 -16
-27 -20 -46 -4 -19 -13 -37 -20 -40 -8 -3 -14 -10 -14 -16 0 -7 -12 -37 -26
-67 -26 -55 -52 -113 -73 -160 -6 -14 -15 -32 -20 -40 -5 -8 -14 -26 -20 -40
-6 -14 -22 -43 -36 -65 -13 -22 -29 -50 -36 -61 -21 -41 -91 -56 -143 -33 -13
6 -32 27 -42 45 -10 19 -22 34 -25 34 -4 0 -10 12 -14 28 -3 15 -12 34 -20 42
-7 8 -18 32 -25 53 -6 20 -15 37 -20 37 -5 0 -12 10 -15 23 -6 19 -89 192
-114 237 -5 8 -14 26 -20 40 -6 14 -15 32 -19 40 -31 55 -52 101 -52 113 0 8
-9 24 -19 36 -11 13 -23 35 -26 51 -3 16 -13 34 -21 41 -8 6 -14 19 -14 29 0
9 -8 28 -19 41 -10 13 -22 35 -26 49 -4 14 -13 32 -20 40 -7 8 -16 29 -19 47
-4 17 -13 34 -21 37 -8 3 -17 21 -20 40 -4 19 -13 40 -20 46 -8 6 -17 24 -20
40 -3 16 -12 34 -20 40 -8 6 -17 26 -21 43 -3 18 -15 43 -25 56 -11 13 -19 32
-19 41 0 10 -6 20 -14 23 -8 3 -17 19 -21 36 -3 16 -12 35 -20 41 -8 6 -17 24
-20 40 -3 16 -12 34 -20 40 -8 6 -17 26 -21 43 -3 18 -15 43 -25 56 -11 13
-19 31 -19 41 0 10 -9 29 -20 43 -11 14 -20 30 -20 37 0 7 -9 23 -20 37 -11
14 -20 33 -20 43 0 10 -9 29 -20 43 -11 14 -20 32 -20 40 0 7 -9 24 -20 37
-11 13 -20 29 -20 35 0 7 -20 52 -45 101 -25 48 -45 93 -45 100 0 6 -7 17 -15
24 -8 7 -15 20 -15 30 0 9 -9 28 -19 42 -11 13 -23 36 -26 51 -4 14 -13 31
-21 38 -7 6 -16 26 -20 45 -3 18 -12 38 -19 44 -8 6 -17 24 -20 40 -3 16 -12
34 -20 40 -8 6 -17 24 -20 40 -3 16 -12 34 -20 40 -8 6 -17 26 -21 43 -3 18
-15 43 -25 56 -11 13 -19 32 -19 41 0 10 -7 23 -15 30 -8 7 -15 17 -15 24 0
10 -42 104 -61 136 -5 8 -14 26 -20 40 -6 14 -15 32 -20 40 -9 17 -60 121 -78
160 -6 14 -15 32 -20 40 -23 38 -141 286 -141 296 0 6 -6 17 -14 23 -8 7 -17
24 -21 39 -4 15 -12 34 -20 42 -7 8 -16 26 -20 40 -4 14 -13 32 -20 40 -7 8
-16 26 -20 40 -4 14 -16 36 -26 49 -11 13 -19 31 -19 41 0 9 -9 27 -20 40 -11
13 -20 30 -20 39 0 9 -9 30 -20 46 -11 17 -20 41 -20 55 -1 14 -7 43 -15 65
-13 36 -12 46 7 110 12 38 27 76 35 83 7 7 13 20 13 28 0 8 8 32 19 52 17 34
43 90 70 152 6 14 15 32 20 40 6 8 12 27 15 42 4 15 12 33 20 40 7 8 17 28 20
45 4 18 14 37 21 43 8 7 17 27 21 46 3 18 12 38 20 45 8 6 14 16 14 22 0 5 12
35 26 66 15 31 35 76 46 101 11 25 29 62 39 82 11 20 19 43 19 51 0 8 7 20 15
27 8 7 17 27 21 46 3 18 12 38 19 44 8 6 17 26 21 43 3 18 15 44 25 59 11 14
19 32 19 40 0 7 9 27 20 43 11 17 20 37 20 46 0 9 9 28 20 42 11 14 20 34 20
45 0 10 9 31 20 45 11 14 20 32 20 40 0 8 9 26 20 40 11 14 20 33 20 42 0 9 8
33 19 53 23 46 57 119 71 152 5 14 14 32 19 40 19 33 61 128 61 137 0 6 7 16
15 23 8 7 17 27 21 46 3 18 12 38 19 44 8 6 17 26 21 43 3 18 15 43 25 56 11
13 19 30 19 38 0 8 9 32 20 54 11 21 29 57 40 78 11 22 20 46 20 54 0 8 9 24
20 37 11 13 20 29 20 37 0 8 9 32 20 54 11 21 29 57 40 78 11 22 20 45 20 51
0 7 8 24 19 38 10 15 22 41 25 59 4 17 13 37 21 43 7 6 16 26 19 44 4 19 13
39 21 46 7 6 17 24 20 40 3 16 13 34 21 41 8 6 14 18 14 27 0 9 9 36 21 61 54
116 68 147 73 161 3 8 10 22 15 30 19 29 61 129 61 143 0 8 6 20 14 26 8 7 18
27 22 44 3 18 15 43 25 56 11 13 19 30 19 38 0 8 9 32 20 54 11 21 29 57 40
78 11 22 20 46 20 54 0 8 9 26 20 40 11 14 20 34 20 45 0 10 9 29 20 42 11 13
20 33 20 45 0 12 9 34 20 48 11 14 20 34 20 45 0 10 8 30 19 43 10 13 22 38
25 56 4 17 13 37 21 43 7 6 16 27 20 46 3 19 13 38 21 41 7 3 14 12 14 20 0
13 16 52 69 168 11 22 28 61 40 86 12 25 21 53 21 61 0 9 6 21 13 27 8 6 19
29 26 51 6 22 16 40 21 40 4 0 12 15 15 33 4 17 16 46 26 63 10 17 19 38 19
46 0 9 6 21 14 27 8 6 19 32 25 56 6 25 16 45 21 45 5 0 13 12 16 28 7 25 17
48 64 141 11 22 20 46 20 54 0 8 9 26 20 40 11 14 20 31 20 39 0 7 9 30 20 51
11 20 20 43 20 51 0 7 8 24 19 37 10 13 24 41 30 62 7 20 16 37 21 37 4 0 11
15 14 34 4 19 13 37 21 40 8 3 15 11 15 17 0 16 86 95 125 116 17 8 45 18 64
22 19 3 859 5 1868 3 1792 -2 1835 -3 1886 -22z m-20763 1 c72 -29 145 -66
162 -83 10 -10 23 -18 28 -18 6 0 10 -7 10 -15 0 -8 7 -15 15 -15 9 0 19 -8
22 -17 4 -9 13 -24 20 -32 7 -9 25 -29 38 -45 14 -16 25 -35 25 -43 0 -8 9
-26 20 -40 11 -14 20 -34 20 -43 0 -10 6 -23 14 -29 8 -7 17 -24 21 -38 3 -15
15 -38 26 -51 10 -14 19 -32 19 -42 0 -9 9 -27 20 -40 11 -13 20 -31 20 -40 0
-9 9 -27 20 -40 11 -13 20 -31 20 -40 0 -10 9 -29 20 -43 11 -14 20 -34 20
-45 0 -10 9 -31 20 -45 11 -14 20 -29 20 -34 0 -4 12 -30 25 -58 14 -27 25
-56 25 -62 0 -7 4 -13 9 -13 5 0 15 -17 21 -37 7 -21 18 -45 25 -53 7 -8 16
-26 20 -40 4 -14 13 -32 20 -40 7 -8 16 -26 20 -40 4 -14 13 -32 20 -40 8 -8
17 -28 21 -45 4 -16 15 -41 26 -54 10 -13 18 -32 18 -41 0 -10 7 -23 15 -30 8
-7 17 -28 21 -47 4 -19 12 -37 20 -40 7 -2 16 -17 19 -33 3 -16 15 -38 26 -51
10 -12 19 -31 19 -41 0 -11 9 -31 20 -45 11 -14 20 -33 20 -43 0 -9 9 -27 20
-40 11 -13 20 -29 20 -36 0 -15 50 -114 67 -131 6 -7 14 -26 18 -43 4 -16 11
-30 16 -30 5 0 12 -12 15 -27 4 -16 17 -47 29 -69 12 -23 25 -50 28 -60 4 -11
11 -26 16 -34 6 -8 22 -42 36 -75 15 -33 30 -67 36 -75 5 -8 14 -26 19 -40 6
-14 15 -32 20 -40 6 -8 15 -26 20 -40 6 -14 15 -32 20 -40 6 -8 15 -26 20 -40
6 -14 15 -32 20 -40 6 -8 15 -26 21 -40 6 -14 15 -32 20 -40 5 -8 14 -26 20
-40 32 -73 50 -113 88 -188 22 -46 41 -89 41 -96 0 -7 9 -23 20 -36 11 -13 20
-28 20 -35 0 -16 59 -133 71 -140 5 -4 9 -14 9 -24 0 -10 8 -29 19 -42 10 -13
22 -35 26 -49 4 -14 13 -32 20 -40 7 -8 16 -30 20 -47 3 -18 11 -33 15 -33 5
0 15 -18 21 -40 7 -22 18 -45 26 -51 7 -6 13 -19 13 -28 0 -9 12 -34 25 -56
14 -22 25 -47 25 -56 0 -9 6 -22 14 -28 7 -6 16 -25 20 -42 3 -17 15 -42 26
-56 11 -14 20 -34 20 -43 0 -10 6 -23 14 -29 8 -7 17 -24 21 -38 3 -15 15 -38
26 -51 10 -14 19 -32 19 -42 0 -9 9 -27 20 -40 11 -13 20 -30 20 -39 0 -9 9
-29 20 -46 11 -16 20 -38 20 -47 0 -9 6 -23 13 -30 8 -7 20 -30 26 -51 7 -20
17 -37 21 -37 5 0 14 -18 20 -40 6 -21 15 -42 20 -45 5 -3 14 -24 20 -45 6
-22 15 -40 20 -40 5 0 15 -18 21 -40 7 -22 18 -45 26 -51 7 -6 13 -17 13 -25
0 -7 11 -34 25 -60 14 -26 25 -53 25 -59 0 -7 7 -18 15 -25 8 -7 15 -20 15
-30 0 -9 8 -28 19 -41 10 -13 22 -38 25 -56 4 -17 13 -37 21 -43 8 -6 17 -24
20 -40 3 -16 12 -34 20 -40 8 -6 17 -26 21 -43 3 -18 15 -43 25 -56 11 -13 19
-32 19 -41 0 -10 7 -23 15 -30 8 -7 15 -17 15 -24 0 -10 42 -104 61 -136 5 -8
14 -26 20 -40 6 -14 29 -61 50 -105 21 -44 41 -92 45 -107 3 -16 10 -28 14
-28 5 0 14 -17 20 -37 7 -21 18 -45 25 -53 8 -8 16 -27 20 -42 4 -15 13 -32
21 -39 7 -6 16 -26 20 -45 3 -19 10 -34 15 -34 4 0 14 -18 20 -40 7 -22 18
-45 26 -51 7 -6 13 -16 13 -21 0 -10 46 -114 61 -138 5 -8 14 -26 19 -40 14
-32 51 -110 62 -130 4 -8 13 -26 19 -40 23 -53 52 -116 61 -130 4 -8 13 -26
19 -40 6 -14 15 -32 20 -40 5 -8 12 -23 16 -34 3 -10 17 -39 30 -63 12 -24 23
-50 23 -57 0 -7 9 -23 20 -36 11 -13 20 -31 20 -40 0 -10 9 -29 20 -43 11 -14
20 -32 20 -40 0 -8 9 -26 20 -40 11 -14 20 -30 20 -37 0 -6 9 -28 19 -48 37
-71 71 -147 71 -158 0 -7 6 -17 14 -23 8 -7 18 -25 21 -41 3 -16 12 -34 20
-40 8 -6 17 -24 20 -40 3 -16 12 -34 20 -40 7 -6 16 -26 19 -44 4 -19 13 -39
20 -45 8 -7 17 -24 21 -39 4 -15 12 -34 20 -42 7 -8 16 -26 20 -40 4 -14 16
-36 26 -49 11 -13 19 -33 19 -43 0 -11 9 -31 20 -45 11 -14 20 -34 20 -43 0
-10 6 -23 14 -29 8 -7 18 -27 22 -44 3 -18 15 -43 25 -56 11 -13 19 -30 19
-38 0 -8 9 -26 20 -40 11 -14 20 -32 20 -39 0 -7 18 -47 40 -89 22 -42 40 -82
40 -89 0 -7 8 -24 19 -37 10 -13 22 -38 25 -56 4 -17 13 -37 21 -43 8 -6 17
-24 20 -40 3 -16 12 -34 20 -40 7 -6 16 -26 19 -44 4 -19 13 -39 21 -46 7 -6
17 -24 20 -40 3 -16 13 -34 20 -40 8 -7 17 -27 21 -45 3 -19 12 -36 19 -39 8
-3 17 -21 21 -41 3 -20 12 -39 20 -42 7 -2 16 -19 20 -36 3 -18 15 -43 25 -56
11 -13 19 -30 19 -38 0 -8 9 -26 20 -40 11 -14 20 -32 20 -40 0 -8 9 -26 20
-40 11 -14 20 -35 20 -45 0 -11 9 -31 20 -45 11 -14 20 -33 20 -43 0 -10 9
-29 20 -43 11 -14 20 -31 20 -39 0 -7 9 -26 20 -43 11 -16 20 -37 20 -46 0 -9
9 -28 20 -42 11 -14 20 -32 20 -40 0 -8 9 -26 20 -40 11 -14 20 -32 20 -40 0
-8 8 -25 19 -38 10 -13 22 -38 25 -56 4 -17 13 -37 21 -43 8 -6 17 -24 20 -40
3 -16 13 -34 20 -40 8 -7 17 -27 21 -46 3 -19 10 -34 15 -34 4 0 14 -18 20
-40 7 -22 18 -45 26 -51 7 -6 13 -16 13 -22 0 -9 43 -105 61 -137 5 -8 14 -26
20 -40 6 -14 15 -32 20 -40 5 -8 14 -26 20 -40 18 -39 69 -143 78 -160 5 -8
14 -26 20 -40 6 -14 15 -32 19 -40 31 -56 52 -101 52 -113 0 -8 8 -25 19 -38
10 -13 22 -39 25 -56 4 -18 12 -33 16 -33 5 0 15 -18 21 -40 7 -22 16 -40 20
-40 4 0 13 -17 19 -37 7 -21 18 -45 25 -53 7 -8 16 -29 19 -47 4 -17 13 -34
21 -37 8 -3 17 -21 20 -40 4 -19 13 -40 20 -46 8 -6 17 -24 20 -40 3 -16 12
-34 20 -40 8 -6 17 -25 21 -43 3 -17 13 -37 20 -45 8 -7 17 -25 20 -40 4 -15
12 -34 19 -42 7 -8 16 -26 20 -40 4 -14 16 -36 26 -49 11 -13 19 -32 19 -41 0
-10 6 -23 14 -29 8 -7 17 -24 21 -38 3 -15 15 -38 26 -51 10 -14 19 -32 19
-42 0 -9 9 -27 20 -40 11 -13 20 -29 20 -36 0 -7 18 -47 40 -89 22 -42 40 -82
40 -89 0 -7 9 -25 20 -39 11 -14 20 -32 20 -40 0 -8 9 -26 20 -40 11 -14 20
-34 20 -45 0 -10 9 -31 20 -45 11 -14 20 -31 20 -39 0 -7 10 -31 22 -53 18
-34 22 -57 22 -150 1 -96 -2 -115 -22 -150 -12 -22 -22 -47 -22 -56 0 -9 -7
-22 -15 -29 -8 -7 -15 -18 -15 -24 0 -6 -16 -41 -35 -76 -19 -36 -39 -76 -45
-90 -5 -14 -15 -32 -20 -40 -6 -8 -15 -26 -21 -40 -6 -14 -15 -32 -20 -40 -5
-8 -14 -26 -20 -40 -6 -14 -15 -32 -20 -40 -5 -8 -18 -33 -29 -55 -11 -22 -24
-47 -29 -55 -5 -8 -23 -44 -40 -80 -18 -36 -36 -72 -40 -80 -5 -8 -14 -26 -20
-40 -6 -14 -15 -32 -20 -40 -5 -8 -14 -26 -20 -40 -6 -14 -15 -32 -21 -40 -5
-8 -14 -26 -20 -40 -5 -14 -14 -32 -19 -40 -23 -37 -61 -121 -61 -134 0 -8 -6
-16 -14 -19 -7 -3 -17 -18 -20 -34 -4 -15 -13 -35 -21 -43 -7 -8 -18 -32 -25
-52 -6 -21 -15 -38 -20 -38 -5 0 -12 -15 -16 -32 -3 -18 -15 -44 -25 -57 -11
-13 -19 -30 -19 -38 0 -8 -9 -26 -20 -40 -11 -14 -20 -32 -20 -40 0 -8 -9 -26
-20 -40 -11 -14 -20 -33 -20 -43 0 -10 -9 -29 -20 -43 -11 -14 -20 -30 -20
-37 0 -7 -9 -23 -20 -37 -11 -14 -20 -33 -20 -43 0 -10 -9 -29 -20 -43 -11
-14 -20 -32 -20 -40 0 -8 -9 -26 -20 -40 -11 -14 -20 -32 -20 -40 0 -8 -9 -25
-19 -39 -11 -13 -23 -36 -26 -51 -4 -14 -13 -31 -21 -38 -8 -6 -14 -19 -14
-29 0 -9 -9 -29 -20 -43 -11 -14 -20 -32 -20 -40 0 -8 -9 -25 -19 -39 -11 -13
-23 -38 -27 -54 -4 -16 -15 -40 -26 -53 -10 -13 -18 -30 -18 -38 0 -8 -9 -26
-20 -40 -11 -14 -20 -32 -20 -40 0 -8 -9 -26 -20 -40 -11 -14 -20 -32 -20 -40
0 -8 -9 -26 -20 -40 -11 -14 -20 -33 -20 -43 0 -10 -9 -29 -20 -43 -11 -14
-20 -32 -20 -40 0 -8 -9 -26 -20 -40 -11 -14 -20 -30 -20 -36 0 -5 -18 -44
-40 -86 -22 -42 -40 -82 -40 -89 0 -7 -9 -25 -20 -39 -11 -14 -20 -32 -20 -40
0 -8 -9 -26 -20 -40 -11 -14 -20 -32 -20 -40 0 -8 -9 -26 -20 -40 -11 -14 -20
-32 -20 -40 0 -8 -8 -25 -19 -38 -10 -13 -22 -38 -25 -56 -4 -17 -13 -37 -21
-43 -8 -6 -17 -24 -20 -40 -3 -16 -12 -34 -20 -40 -8 -6 -17 -25 -20 -41 -4
-17 -13 -33 -20 -35 -7 -3 -16 -20 -19 -39 -4 -18 -13 -38 -21 -45 -8 -7 -17
-28 -21 -47 -4 -19 -12 -37 -20 -40 -7 -2 -16 -19 -20 -36 -3 -18 -15 -43 -25
-56 -11 -13 -19 -30 -19 -38 0 -8 -9 -26 -20 -40 -11 -14 -20 -34 -20 -43 0
-10 -7 -23 -15 -30 -8 -7 -15 -17 -15 -23 0 -9 -56 -127 -79 -167 -5 -8 -14
-26 -20 -40 -6 -14 -15 -32 -20 -40 -5 -8 -23 -45 -41 -82 -17 -37 -35 -70
-40 -73 -6 -4 -10 -17 -10 -29 0 -13 -8 -34 -19 -47 -10 -13 -22 -35 -26 -49
-4 -14 -13 -32 -20 -40 -7 -8 -16 -26 -20 -40 -4 -14 -13 -32 -20 -40 -7 -8
-16 -26 -20 -40 -4 -14 -13 -32 -20 -40 -7 -8 -18 -32 -25 -52 -6 -21 -15 -38
-20 -38 -4 0 -11 -12 -15 -27 -3 -14 -15 -38 -26 -51 -10 -14 -19 -30 -19 -37
0 -13 -90 -196 -107 -217 -6 -7 -14 -28 -18 -45 -3 -18 -10 -33 -15 -33 -5 0
-14 -17 -21 -37 -6 -21 -18 -44 -26 -51 -7 -7 -13 -22 -13 -31 0 -10 -9 -29
-19 -43 -11 -13 -23 -36 -26 -51 -4 -14 -13 -28 -20 -30 -7 -3 -15 -21 -19
-40 -4 -19 -13 -38 -21 -41 -8 -3 -15 -13 -15 -22 0 -8 -16 -36 -36 -60 -33
-40 -40 -44 -82 -44 -36 0 -50 5 -71 28 -36 38 -81 104 -81 120 0 8 -9 25 -20
39 -11 14 -20 33 -20 42 0 9 -9 30 -20 46 -11 17 -20 36 -20 43 0 8 -9 25 -20
39 -11 14 -20 35 -20 45 0 11 -9 31 -20 45 -11 14 -20 36 -20 50 0 13 -6 26
-14 29 -8 3 -18 20 -22 37 -3 18 -15 43 -25 56 -11 13 -19 31 -19 40 0 9 -9
30 -20 46 -11 17 -20 37 -20 46 0 9 -9 28 -20 42 -11 14 -20 32 -20 40 0 8 -8
25 -19 38 -10 13 -22 39 -25 57 -4 17 -12 32 -17 32 -5 0 -14 20 -20 45 -6 25
-15 45 -20 45 -4 0 -14 18 -20 40 -7 22 -18 45 -26 51 -7 6 -13 17 -13 23 0 6
-12 34 -25 61 -14 28 -25 55 -25 61 0 6 -6 17 -14 23 -8 7 -18 27 -22 44 -3
18 -15 43 -25 56 -11 13 -19 30 -19 37 0 7 -9 28 -20 46 -11 18 -20 39 -20 46
0 8 -9 25 -20 39 -11 14 -20 33 -20 43 0 9 -9 27 -20 40 -11 13 -20 30 -20 39
0 9 -9 30 -20 46 -11 17 -20 37 -20 46 0 9 -9 26 -20 39 -11 13 -20 31 -20 40
0 9 -9 27 -20 40 -11 13 -20 33 -20 45 0 12 -9 34 -20 48 -11 14 -20 31 -20
39 0 7 -9 27 -20 43 -11 17 -20 37 -20 46 0 9 -9 28 -20 42 -11 14 -20 32 -20
40 0 8 -8 25 -19 38 -10 13 -22 38 -25 56 -4 17 -13 37 -21 43 -8 6 -17 24
-20 40 -3 16 -13 34 -20 40 -8 7 -17 27 -21 46 -3 18 -12 38 -20 45 -7 6 -16
26 -20 45 -3 18 -12 38 -20 45 -8 6 -14 16 -14 23 0 6 -11 33 -24 61 -130 272
-219 460 -248 525 -11 25 -29 62 -39 82 -11 20 -19 43 -19 51 0 8 -8 25 -19
38 -10 13 -22 39 -25 57 -4 17 -11 32 -16 32 -5 0 -14 17 -20 38 -7 20 -18 44
-25 52 -7 8 -16 26 -20 40 -4 14 -13 32 -20 40 -7 8 -16 29 -20 47 -3 17 -12
37 -20 43 -8 6 -17 26 -21 43 -3 18 -15 43 -25 56 -11 13 -19 30 -19 38 0 8
-9 26 -20 40 -11 14 -20 35 -20 45 0 11 -9 31 -20 45 -11 14 -20 33 -20 42 0
9 -9 30 -20 46 -11 17 -20 37 -20 46 0 9 -9 26 -20 39 -11 13 -20 30 -20 39 0
9 -9 30 -20 46 -11 17 -20 37 -20 46 0 9 -9 26 -20 39 -11 13 -20 29 -20 37 0
8 -9 31 -19 51 -11 20 -24 48 -30 62 -6 14 -15 32 -19 40 -31 56 -52 101 -52
113 0 8 -9 26 -20 40 -11 14 -20 32 -20 40 0 8 -8 25 -19 38 -10 13 -22 38
-25 56 -4 17 -13 37 -21 43 -8 6 -17 26 -21 43 -3 18 -15 43 -25 56 -11 13
-19 32 -19 41 0 10 -7 23 -15 30 -8 7 -17 27 -21 46 -3 18 -12 38 -20 45 -8 6
-14 16 -14 23 0 6 -12 36 -26 66 -54 114 -102 216 -113 240 -6 14 -15 32 -19
40 -5 8 -18 35 -30 60 -11 25 -40 88 -65 140 -25 52 -48 102 -51 110 -3 8 -10
22 -14 30 -5 8 -18 35 -30 60 -11 25 -32 70 -46 100 -14 30 -26 63 -26 72 0 9
-6 18 -14 21 -7 3 -16 21 -20 40 -4 19 -13 40 -21 47 -8 7 -17 27 -21 45 -3
19 -12 36 -19 39 -8 3 -17 21 -21 41 -3 20 -13 39 -20 42 -7 3 -16 20 -20 39
-3 18 -12 38 -20 45 -7 6 -16 26 -20 45 -3 18 -12 38 -20 45 -8 6 -14 17 -14
23 0 6 -20 52 -44 101 -24 50 -49 101 -55 115 -6 14 -15 32 -19 40 -31 56 -52
101 -52 113 0 8 -8 25 -19 38 -10 13 -22 39 -25 57 -4 17 -12 32 -16 32 -5 0
-15 18 -21 40 -7 22 -18 45 -26 51 -7 6 -13 17 -13 25 0 7 -11 34 -25 60 -14
26 -25 53 -25 60 0 8 -4 14 -9 14 -5 0 -15 17 -22 37 -7 21 -20 51 -30 68 -11
16 -19 37 -19 46 0 9 -6 22 -14 28 -8 7 -17 27 -20 45 -4 19 -13 39 -21 46 -7
6 -17 24 -20 40 -3 16 -13 34 -20 40 -8 7 -17 27 -21 46 -3 18 -12 38 -20 45
-8 6 -19 29 -24 50 -6 22 -15 39 -20 39 -4 0 -12 15 -16 33 -3 17 -15 43 -25
56 -11 13 -19 34 -19 47 0 12 -4 25 -9 29 -12 7 -71 124 -71 140 0 7 -8 23
-19 36 -10 13 -22 38 -25 56 -4 17 -13 34 -20 36 -8 3 -16 21 -20 40 -4 19
-13 40 -20 46 -8 7 -17 27 -20 45 -4 19 -13 37 -21 40 -8 3 -15 13 -15 23 0
10 -12 41 -25 68 -14 28 -25 55 -25 61 0 6 -6 17 -14 23 -8 7 -18 25 -21 41
-3 16 -12 34 -20 40 -8 6 -17 26 -21 43 -3 18 -15 43 -25 56 -11 13 -19 30
-19 37 0 7 -9 28 -20 46 -11 18 -20 40 -20 49 0 9 -7 22 -15 29 -8 7 -17 28
-21 47 -4 19 -12 37 -20 40 -7 2 -16 19 -20 36 -3 18 -15 43 -25 56 -11 13
-19 33 -19 43 0 11 -9 31 -20 45 -11 14 -20 31 -20 38 0 10 -27 66 -69 145
-23 44 -51 108 -57 133 -3 15 -10 27 -14 27 -5 0 -14 17 -20 38 -7 20 -18 44
-25 52 -7 8 -16 30 -20 48 -3 17 -10 32 -15 32 -5 0 -14 17 -20 38 -7 20 -19
44 -26 53 -8 8 -17 30 -20 47 -4 18 -10 32 -14 32 -5 0 -14 17 -20 38 -7 20
-19 44 -26 53 -8 8 -17 30 -20 47 -4 17 -13 37 -20 43 -8 6 -14 16 -14 23 0
10 -43 106 -61 136 -5 8 -12 23 -16 34 -3 10 -17 39 -30 63 -12 24 -23 49 -23
54 0 6 -9 22 -20 36 -11 14 -20 35 -20 45 0 11 -9 31 -20 45 -11 14 -20 31
-20 39 0 7 -18 48 -39 91 -21 43 -44 89 -50 103 -6 14 -15 32 -20 40 -19 32
-61 126 -61 136 0 7 -6 17 -14 23 -8 7 -17 27 -20 45 -4 19 -13 39 -21 46 -7
6 -17 24 -20 40 -3 16 -13 34 -20 40 -8 7 -17 27 -21 46 -3 18 -12 38 -19 44
-8 6 -17 24 -20 40 -3 16 -13 34 -20 40 -8 7 -17 27 -21 46 -3 18 -12 38 -20
45 -8 6 -14 16 -14 23 0 11 -34 87 -71 158 -10 20 -19 42 -19 48 0 7 -9 23
-20 37 -11 14 -20 34 -20 43 0 10 -6 23 -14 29 -8 7 -18 27 -22 44 -3 18 -15
43 -25 56 -11 13 -19 30 -19 38 0 8 -9 26 -20 40 -11 14 -20 32 -20 39 0 7
-18 47 -40 89 -22 42 -40 82 -40 89 0 7 -9 25 -20 39 -11 14 -20 32 -20 40 0
8 -8 25 -19 38 -10 13 -22 38 -25 56 -4 17 -14 37 -21 43 -8 7 -17 27 -21 46
-3 18 -12 38 -19 44 -8 6 -17 24 -20 40 -3 16 -13 34 -20 40 -8 7 -17 27 -21
46 -3 18 -12 38 -19 44 -8 6 -17 24 -20 40 -3 16 -13 34 -21 41 -8 6 -14 16
-14 23 0 11 -26 68 -91 199 -21 43 -39 84 -39 91 0 8 -8 24 -19 37 -10 13 -22
39 -25 57 -4 17 -11 32 -16 32 -5 0 -12 10 -15 23 -6 20 -52 119 -74 157 -11
20 -84 179 -105 230 -3 8 -10 22 -15 30 -19 32 -61 126 -61 136 0 7 -6 17 -14
23 -8 7 -18 27 -21 44 -4 18 -13 39 -20 47 -7 8 -16 26 -20 40 -4 14 -16 36
-26 49 -11 13 -19 34 -19 48 0 13 -6 26 -14 29 -8 3 -18 20 -22 37 -3 18 -15
43 -25 56 -11 13 -19 33 -19 43 0 11 -9 31 -20 45 -11 14 -20 33 -20 42 0 9
-9 27 -20 41 -11 14 -20 31 -20 38 0 7 -9 31 -20 53 -11 21 -29 57 -40 78 -11
22 -20 46 -20 54 0 8 -9 24 -19 36 -11 13 -23 35 -26 51 -3 16 -13 34 -21 41
-8 6 -14 17 -14 25 0 7 -11 34 -25 60 -14 26 -25 53 -25 60 0 8 -4 14 -10 14
-5 0 -14 17 -20 39 -5 21 -17 44 -25 51 -8 7 -15 20 -15 29 0 9 -11 37 -25 63
-14 26 -25 53 -25 61 0 8 -6 20 -14 26 -8 7 -17 24 -21 39 -4 15 -12 34 -20
42 -7 8 -18 32 -25 53 -6 20 -15 37 -20 37 -5 0 -12 16 -16 35 -3 19 -12 39
-19 45 -8 6 -17 26 -21 43 -3 18 -15 43 -25 56 -11 13 -19 32 -19 41 0 10 -6
23 -14 29 -8 7 -18 27 -22 44 -3 18 -15 43 -25 56 -11 13 -19 31 -19 41 0 10
-9 29 -20 43 -11 14 -20 34 -20 45 0 10 -9 31 -20 45 -11 14 -20 32 -20 40 0
8 -8 25 -19 38 -10 13 -22 38 -25 56 -4 17 -13 34 -20 36 -8 3 -16 21 -20 40
-4 19 -13 40 -20 46 -8 7 -17 27 -20 46 -4 19 -11 35 -16 35 -5 0 -14 17 -20
38 -7 20 -19 44 -26 53 -8 8 -17 30 -20 47 -4 18 -10 32 -14 32 -5 0 -14 17
-20 38 -7 20 -18 44 -25 52 -8 8 -17 29 -21 45 -4 17 -15 41 -26 54 -10 13
-18 32 -18 41 0 10 -7 23 -15 30 -8 7 -20 30 -25 51 -6 22 -15 39 -20 39 -5 0
-12 16 -16 35 -3 19 -15 44 -25 56 -10 12 -19 31 -19 41 0 11 -9 31 -20 45
-11 14 -20 35 -20 45 0 11 -9 31 -20 45 -11 14 -20 32 -20 40 0 8 -9 26 -20
40 -11 14 -20 33 -20 43 0 9 -9 27 -20 40 -11 13 -20 29 -20 36 0 7 -11 34
-25 60 -14 26 -25 53 -25 59 0 7 -6 18 -14 24 -8 7 -17 27 -20 45 -4 19 -13
36 -20 39 -8 3 -17 24 -21 46 -3 21 -13 42 -21 45 -8 3 -14 12 -14 21 0 8 -9
42 -21 75 l-20 59 23 77 c17 58 32 86 63 117 52 53 85 77 106 77 9 0 32 7 50
15 50 21 4895 18 4949 -4z"/>
</g>
</svg>
